<svg width="24" height="24" viewBox="0 0 24 24" fill="none" xmlns="http://www.w3.org/2000/svg">
  <path
    d="M21.8146 17.775L23.9961 6.525C24.0013 6.47518 24.0013 6.42482 23.9961 6.375C23.9961 6.20924 23.9387 6.05027 23.8364 5.93306C23.7341 5.81584 23.5953 5.75 23.4507 5.75H5.9663L5.19187 2.44375C5.15786 2.3151 5.08855 2.20244 4.99424 2.1225C4.89992 2.04256 4.78563 1.9996 4.66833 2H0.545365C0.400725 2 0.26201 2.06585 0.159734 2.18306C0.0574579 2.30027 0 2.45924 0 2.625C0 2.79076 0.0574579 2.94974 0.159734 3.06694C0.26201 3.18416 0.400725 3.25 0.545365 3.25H4.25385L7.63512 17.8063C7.65794 17.8934 7.69709 17.9738 7.74984 18.0418C7.80259 18.1098 7.86767 18.1638 7.94054 18.2C7.7369 18.5932 7.63127 19.0428 7.63512 19.5C7.63512 20.163 7.86494 20.7989 8.27403 21.2678C8.68317 21.7366 9.23802 22 9.81658 22C10.3951 22 10.95 21.7366 11.3591 21.2678C11.7682 20.7989 11.998 20.163 11.998 19.5C11.9957 19.0603 11.8922 18.6291 11.6981 18.25H17.7516C17.5575 18.6291 17.4541 19.0603 17.4517 19.5C17.4517 20.163 17.6816 20.7989 18.0906 21.2678C18.4998 21.7366 19.0546 22 19.6332 22C20.2117 22 20.7666 21.7366 21.1757 21.2678C21.5848 20.7989 21.8146 20.163 21.8146 19.5C21.8129 19.0383 21.6997 18.5862 21.4874 18.1937C21.5667 18.1581 21.6376 18.1016 21.6944 18.0289C21.7512 17.9562 21.7924 17.8692 21.8146 17.775ZM19.5732 7H22.769L22.2837 9.49998H19.3332L19.5732 7ZM6.25534 7H9.87111L10.1111 9.49998H6.83888L6.25534 7ZM7.71692 13.25L7.13338 10.75H10.2365L10.4819 13.25H7.71692ZM8.01139 14.5H10.6019L10.8419 17H8.60043L8.01139 14.5ZM9.81658 20.75C9.60082 20.75 9.38995 20.6767 9.21059 20.5393C9.03124 20.402 8.89145 20.2068 8.80886 19.9784C8.72628 19.75 8.70469 19.4986 8.74677 19.2561C8.78892 19.0136 8.89278 18.7909 9.04534 18.6161C9.19783 18.4413 9.39223 18.3223 9.60381 18.274C9.8154 18.2258 10.0347 18.2505 10.234 18.3452C10.4333 18.4397 10.6037 18.6 10.7235 18.8055C10.8434 19.0111 10.9073 19.2528 10.9073 19.5C10.9073 19.8315 10.7924 20.1494 10.5878 20.3839C10.3833 20.6183 10.1059 20.75 9.81658 20.75ZM14.1795 17H11.9381L11.6981 14.5H14.1795V17ZM14.1795 13.25H11.5781L11.3327 10.75H14.1795V13.25ZM14.1795 9.49998H11.2127L10.9728 7H14.1795V9.49998ZM17.5117 17H15.2702V14.5H17.7516L17.5117 17ZM17.8771 13.25H15.2702V10.75H18.117L17.8771 13.25ZM18.2425 9.49998H15.2702V7H18.477L18.2425 9.49998ZM19.6332 20.75C19.4174 20.75 19.2065 20.6767 19.0272 20.5393C18.8478 20.402 18.708 20.2068 18.6254 19.9784C18.5429 19.75 18.5213 19.4986 18.5633 19.2561C18.6054 19.0136 18.7094 18.7909 18.8619 18.6161C19.0144 18.4413 19.2088 18.3223 19.4204 18.274C19.632 18.2258 19.8513 18.2505 20.0506 18.3452C20.2499 18.4397 20.4202 18.6 20.5401 18.8055C20.6599 19.0111 20.7239 19.2528 20.7239 19.5C20.7239 19.8315 20.609 20.1494 20.4044 20.3839C20.1999 20.6183 19.9224 20.75 19.6332 20.75ZM20.8329 17H18.6079L18.8478 14.5H21.3183L20.8329 17ZM18.9733 13.25L19.2187 10.75H22.0491L21.5637 13.25H18.9733Z"
    fill="currentColor" />
</svg>